<svg width="88" height="88" viewBox="0 0 88 88" fill="none" xmlns="http://www.w3.org/2000/svg">
<path d="M0 44C0 19.6995 19.6995 0 44 0C68.3005 0 88 19.6995 88 44C88 68.3005 68.3005 88 44 88C19.6995 88 0 68.3005 0 44Z" fill="#0D0402"/>
<path d="M8 44C8 24.1178 24.1178 8 44 8C63.8823 8 80 24.1178 80 44C80 63.8823 63.8823 80 44 80C24.1178 80 8 63.8823 8 44Z" fill="#FF5733"/>
<path d="M42.3636 29.2727C42.3636 28.369 43.0962 27.6364 44 27.6364C44.9037 27.6364 45.6364 28.369 45.6364 29.2727V42.3636H58.3983C59.3021 42.3636 60.0347 43.0962 60.0347 44C60.0347 44.9037 59.3021 45.6364 58.3983 45.6364H45.6364V58.3983C45.6364 59.3021 44.9037 60.0347 44 60.0347C43.0962 60.0347 42.3636 59.3021 42.3636 58.3983V45.6364H29.2727C28.369 45.6364 27.6364 44.9037 27.6364 44C27.6364 43.0962 28.369 42.3636 29.2727 42.3636H42.3636V29.2727Z" fill="#0D0402"/>
<path d="M44 1.59094C20.5781 1.59094 1.59088 20.5781 1.59088 44C1.59088 67.4219 20.5781 86.4091 44 86.4091C67.4219 86.4091 86.4091 67.4219 86.4091 44C86.4091 20.5781 67.4219 1.59094 44 1.59094Z" stroke="#FF5733" stroke-width="3"/>
</svg>
